<?xml version="1.0" encoding="utf-8"?>
<!-- Generator: Adobe Illustrator 24.0.1, SVG Export Plug-In . SVG Version: 6.00 Build 0)  -->
<svg version="1.1" id="Режим_изоляции"
	 xmlns="http://www.w3.org/2000/svg" xmlns:xlink="http://www.w3.org/1999/xlink" x="0px" y="0px" viewBox="0 0 71.1 82.1"
	 style="enable-background:new 0 0 71.1 82.1;" xml:space="preserve">
<style type="text/css">
	.st0{fill:#0B71BB;}
	.st1{fill:#0C5F9C;}
</style>
<g>
	<path class="st0" d="M35.55,0L71.1,20.52v41.05L35.55,82.1L0,61.57V20.52L35.55,0z M69.89,21.22L35.55,1.4L1.21,21.22v39.65
		L35.55,80.7l34.34-19.82V21.22z"/>
</g>
<g>
	<path class="st0" d="M35.55,9.96l0.06,0.03L62.48,25.5V56.6l-0.06,0.03L35.55,72.14l-0.06-0.03L8.62,56.6V25.5l0.06-0.03
		L35.55,9.96z M62.25,25.64l-26.7-15.41L8.85,25.64v30.83l26.7,15.41l26.7-15.41V25.64z"/>
</g>
<g>
	<circle class="st0" cx="35.3" cy="72.23" r="1.48"/>
	<circle class="st0" cx="62.11" cy="56.75" r="3.92"/>
	<path class="st0" d="M8.49,53.84c-1.6,0-2.91,1.3-2.91,2.91c0,1.6,1.3,2.91,2.91,2.91s2.91-1.3,2.91-2.91
		C11.39,55.15,10.09,53.84,8.49,53.84z"/>
	<path class="st0" d="M8.49,22.38c-1.89,0-3.41,1.53-3.41,3.41c0,1.89,1.53,3.41,3.41,3.41c1.89,0,3.41-1.53,3.41-3.41
		C11.9,23.91,10.37,22.38,8.49,22.38z"/>
	<path class="st0" d="M60.31,25.79c0,0.99,0.8,1.8,1.8,1.8c0.99,0,1.8-0.8,1.8-1.8c0-0.99-0.8-1.8-1.8-1.8
		C61.12,24,60.31,24.8,60.31,25.79z"/>
	<path class="st0" d="M35.3,8.39c-1.06,0-1.92,0.86-1.92,1.92c0,1.06,0.86,1.92,1.92,1.92c1.06,0,1.92-0.86,1.92-1.92
		C37.22,9.25,36.36,8.39,35.3,8.39z"/>
</g>
<g>
	
		<rect x="34.69" y="42.99" transform="matrix(-1.836970e-16 1 -1 -1.836970e-16 92.239 21.1335)" class="st1" width="1.73" height="27.4"/>
	
		<rect x="34.69" y="11.71" transform="matrix(-1.836970e-16 1 -1 -1.836970e-16 60.9648 -10.1409)" class="st1" width="1.73" height="27.4"/>
	
		<rect x="47.52" y="24.55" transform="matrix(-1 -1.224647e-16 1.224647e-16 -1 96.7756 82.0999)" class="st1" width="1.73" height="33"/>
	
		<rect x="21.85" y="24.55" transform="matrix(-1 -1.224647e-16 1.224647e-16 -1 45.4238 82.0999)" class="st1" width="1.73" height="33"/>
	<g>
		<g>
			<path class="st1" d="M43.97,31.71H33.41c-0.36,0-0.66-0.15-0.66-0.35v-0.35c0-0.19,0.3-0.35,0.66-0.35h10.56
				c0.36,0,0.66,0.15,0.66,0.35v0.35C44.63,31.55,44.34,31.71,43.97,31.71z"/>
			<path class="st1" d="M31.49,29.74l-2.43,2.73c-0.12,0.13-0.29,0.2-0.45,0.2c-0.13,0-0.27-0.04-0.38-0.13l-1.52-1.22
				c-0.26-0.21-0.3-0.59-0.09-0.85c0.21-0.26,0.59-0.3,0.85-0.09l1.07,0.85l2.05-2.3c0.22-0.25,0.61-0.27,0.86-0.05
				C31.69,29.1,31.71,29.49,31.49,29.74z"/>
		</g>
		<g>
			<path class="st1" d="M43.97,38.4H33.41c-0.36,0-0.66-0.15-0.66-0.35v-0.35c0-0.19,0.3-0.35,0.66-0.35h10.56
				c0.36,0,0.66,0.15,0.66,0.35v0.35C44.63,38.25,44.34,38.4,43.97,38.4z"/>
			<path class="st1" d="M31.49,36.43l-2.43,2.73c-0.12,0.13-0.29,0.2-0.45,0.2c-0.13,0-0.27-0.04-0.38-0.13l-1.52-1.22
				c-0.26-0.21-0.3-0.59-0.09-0.85c0.21-0.26,0.59-0.3,0.85-0.09l1.07,0.85l2.05-2.3c0.22-0.25,0.61-0.27,0.86-0.05
				C31.69,35.8,31.71,36.18,31.49,36.43z"/>
		</g>
		<g>
			<path class="st1" d="M43.97,45.1H33.41c-0.36,0-0.66-0.15-0.66-0.35v-0.35c0-0.19,0.3-0.35,0.66-0.35h10.56
				c0.36,0,0.66,0.15,0.66,0.35v0.35C44.63,44.94,44.34,45.1,43.97,45.1z"/>
			<path class="st1" d="M31.49,43.13l-2.43,2.73c-0.12,0.13-0.29,0.2-0.45,0.2c-0.13,0-0.27-0.04-0.38-0.13l-1.52-1.22
				c-0.26-0.21-0.3-0.59-0.09-0.85c0.21-0.26,0.59-0.3,0.85-0.09l1.07,0.85l2.05-2.3c0.22-0.25,0.61-0.27,0.86-0.05
				C31.69,42.5,31.71,42.88,31.49,43.13z"/>
		</g>
		<g>
			<path class="st1" d="M43.97,51.8H33.41c-0.36,0-0.66-0.15-0.66-0.35v-0.35c0-0.19,0.3-0.35,0.66-0.35h10.56
				c0.36,0,0.66,0.15,0.66,0.35v0.35C44.63,51.64,44.34,51.8,43.97,51.8z"/>
			<path class="st1" d="M31.49,49.83l-2.43,2.73c-0.12,0.13-0.29,0.2-0.45,0.2c-0.13,0-0.27-0.04-0.38-0.13l-1.52-1.22
				c-0.26-0.21-0.3-0.59-0.09-0.85c0.21-0.26,0.59-0.3,0.85-0.09l1.07,0.85l2.05-2.3c0.22-0.25,0.61-0.27,0.86-0.05
				C31.69,49.19,31.71,49.58,31.49,49.83z"/>
		</g>
	</g>
</g>
</svg>
