<?xml version="1.0" encoding="utf-8"?>
<!-- Generator: Adobe Illustrator 24.0.1, SVG Export Plug-In . SVG Version: 6.00 Build 0)  -->
<svg version="1.1" id="Режим_изоляции"
	 xmlns="http://www.w3.org/2000/svg" xmlns:xlink="http://www.w3.org/1999/xlink" x="0px" y="0px" viewBox="0 0 71.1 82.1"
	 style="enable-background:new 0 0 71.1 82.1;" xml:space="preserve">
<style type="text/css">
	.st0{fill:#0B71BB;}
	.st1{fill:#0C5F9C;}
</style>
<g>
	<path class="st0" d="M35.55,0L71.1,20.52v41.05L35.55,82.1L0,61.57V20.52L35.55,0z M69.89,21.22L35.55,1.4L1.21,21.22v39.65
		L35.55,80.7l34.34-19.82V21.22z"/>
</g>
<g>
	<path class="st0" d="M35.55,9.96l0.06,0.03L62.48,25.5V56.6l-0.06,0.03L35.55,72.14l-0.06-0.03L8.62,56.6V25.5l0.06-0.03
		L35.55,9.96z M62.25,25.64l-26.7-15.41L8.85,25.64v30.83l26.7,15.41l26.7-15.41V25.64z"/>
</g>
<g>
	<circle class="st0" cx="35.3" cy="72.23" r="1.48"/>
	<circle class="st0" cx="62.11" cy="56.75" r="3.92"/>
	<path class="st0" d="M8.49,53.84c-1.6,0-2.91,1.3-2.91,2.91c0,1.6,1.3,2.91,2.91,2.91s2.91-1.3,2.91-2.91
		C11.39,55.15,10.09,53.84,8.49,53.84z"/>
	<path class="st0" d="M8.49,22.38c-1.89,0-3.41,1.53-3.41,3.41c0,1.89,1.53,3.41,3.41,3.41c1.89,0,3.41-1.53,3.41-3.41
		C11.9,23.91,10.37,22.38,8.49,22.38z"/>
	<path class="st0" d="M60.31,25.79c0,0.99,0.8,1.8,1.8,1.8c0.99,0,1.8-0.8,1.8-1.8c0-0.99-0.8-1.8-1.8-1.8
		C61.12,24,60.31,24.8,60.31,25.79z"/>
	<path class="st0" d="M35.3,8.39c-1.06,0-1.92,0.86-1.92,1.92c0,1.06,0.86,1.92,1.92,1.92c1.06,0,1.92-0.86,1.92-1.92
		C37.22,9.25,36.36,8.39,35.3,8.39z"/>
</g>
<g>
	<path class="st1" d="M52.49,42.92c0-1.1-0.66-2.09-1.65-2.42l-2.97-1.54v-0.44l1.65-1.76v-3.85c0-0.77-0.33-1.54-0.88-1.98
		l-1.43-1.21c-0.44-0.44-1.1-0.66-1.76-0.66h-1.76c-0.66,0-1.21,0.22-1.76,0.66l-1.43,1.21c-0.22,0.11-0.33,0.33-0.44,0.55
		c-0.11-0.22-0.22-0.33-0.44-0.44l-1.43-1.21c-0.44-0.44-1.1-0.66-1.76-0.66h-1.76c-0.66,0-1.21,0.22-1.76,0.66l-1.43,1.21
		c-0.11,0.11-0.22,0.22-0.33,0.44c0-0.22-0.11-0.44-0.22-0.55l-1.43-1.21c-0.44-0.44-1.1-0.66-1.76-0.66h-1.76
		c-0.66,0-1.21,0.22-1.76,0.66l-1.32,1.21c-0.66,0.55-0.99,1.21-0.99,1.98v3.85l1.65,1.76v0.44l-3.19,1.54
		c-0.99,0.33-1.65,1.32-1.65,2.42l-0.77,7.92v2.2h6.49v-2.2h-4.29l0.77-7.92c0-0.22,0.11-0.33,0.33-0.44l4.51-2.2v-2.64l-1.65-1.76
		v-2.97c0-0.11,0.11-0.22,0.11-0.33l1.43-1.21c0.11-0.11,0.22-0.11,0.33-0.11h1.76c0.11,0,0.22,0,0.33,0.11l1.43,1.21
		c0.11,0.11,0.11,0.22,0.11,0.33v2.97l-1.65,1.76v2.64l0.77,0.44c-0.77,0.44-1.21,1.32-1.21,2.2l-0.77,6.6v3.52h17.71v-3.41
		l-0.88-6.82c0-0.77-0.44-1.54-1.1-1.98l0.99-0.44v-2.75l-1.65-1.76v-2.97c0-0.11,0.11-0.22,0.11-0.33l1.43-1.21
		c0.11-0.11,0.22-0.11,0.33-0.11h1.76c0.11,0,0.22,0,0.22,0.11l1.43,1.21c0.11,0.11,0.11,0.22,0.11,0.33v2.97l-1.65,1.76v2.64
		l4.18,2.09l0.11,0.11c0.22,0.11,0.33,0.33,0.33,0.55l0.66,6.6v1.21h-4.29v2.2h6.6v-3.52L52.49,42.92z M38.96,38.52l1.1-1.21
		l1.21,1.21v0.44l-1.21,0.55l-1.1-0.55V38.52z M30.16,38.52l1.1-1.21l1.1,1.21v0.44l-1.1,0.55l-1.1-0.55V38.52z M42.26,50.84H28.95
		v-1.1l0.77-6.71v-0.11c0-0.22,0.11-0.33,0.33-0.44l4.51-2.2v-2.64l-1.65-1.76v-2.97c0-0.11,0.11-0.22,0.11-0.33l1.43-1.21
		c0.11-0.11,0.22-0.11,0.33-0.11h1.76c0.11,0,0.22,0,0.22,0.11l1.43,1.21c0.11,0.11,0.11,0.22,0.11,0.33v2.97l-1.65,1.76v2.64
		l4.18,2.09l0.11,0.11c0.22,0.11,0.33,0.22,0.33,0.44l0.88,6.82L42.26,50.84z"/>
</g>
</svg>
