<?xml version="1.0" encoding="utf-8"?>
<!-- Generator: Adobe Illustrator 24.0.1, SVG Export Plug-In . SVG Version: 6.00 Build 0)  -->
<svg version="1.1" id="Режим_изоляции"
	 xmlns="http://www.w3.org/2000/svg" xmlns:xlink="http://www.w3.org/1999/xlink" x="0px" y="0px" viewBox="0 0 71.1 82.1"
	 style="enable-background:new 0 0 71.1 82.1;" xml:space="preserve">
<style type="text/css">
	.st0{fill:#0B71BB;}
	.st1{fill:#0C5F9C;}
</style>
<g>
	<path class="st0" d="M35.55,0L71.1,20.52v41.05L35.55,82.1L0,61.57V20.52L35.55,0z M69.89,21.22L35.55,1.4L1.21,21.22v39.65
		L35.55,80.7l34.34-19.82V21.22z"/>
</g>
<g>
	<path class="st0" d="M35.55,9.96l0.06,0.03L62.48,25.5V56.6l-0.06,0.03L35.55,72.14l-0.06-0.03L8.62,56.6V25.5l0.06-0.03
		L35.55,9.96z M62.25,25.64l-26.7-15.41L8.85,25.64v30.83l26.7,15.41l26.7-15.41V25.64z"/>
</g>
<g>
	<circle class="st0" cx="35.3" cy="72.23" r="1.48"/>
	<circle class="st0" cx="62.11" cy="56.75" r="3.92"/>
	<path class="st0" d="M8.49,53.84c-1.6,0-2.91,1.3-2.91,2.91c0,1.6,1.3,2.91,2.91,2.91s2.91-1.3,2.91-2.91
		C11.39,55.15,10.09,53.84,8.49,53.84z"/>
	<path class="st0" d="M8.49,22.38c-1.89,0-3.41,1.53-3.41,3.41c0,1.89,1.53,3.41,3.41,3.41c1.89,0,3.41-1.53,3.41-3.41
		C11.9,23.91,10.37,22.38,8.49,22.38z"/>
	<path class="st0" d="M60.31,25.79c0,0.99,0.8,1.8,1.8,1.8c0.99,0,1.8-0.8,1.8-1.8c0-0.99-0.8-1.8-1.8-1.8
		C61.12,24,60.31,24.8,60.31,25.79z"/>
	<path class="st0" d="M35.3,8.39c-1.06,0-1.92,0.86-1.92,1.92c0,1.06,0.86,1.92,1.92,1.92c1.06,0,1.92-0.86,1.92-1.92
		C37.22,9.25,36.36,8.39,35.3,8.39z"/>
</g>
<g>
	<path class="st1" d="M47.02,41.26c-2.92,0-5.22,2.3-5.22,5.22c0,1.67,0.73,3.24,2.09,4.18l0,0v6.89l3.13-1.57l3.13,1.57v-6.89l0,0
		c2.3-1.67,2.82-5.01,1.15-7.31C50.25,42.09,48.69,41.26,47.02,41.26L47.02,41.26z M48.06,54.21l-1.04-0.52l-1.04,0.52V51.6
		c0.73,0.1,1.36,0.1,2.09,0V54.21z M47.02,49.61c-1.78,0-3.13-1.36-3.13-3.13c0-1.78,1.36-3.13,3.13-3.13
		c1.78,0,3.13,1.36,3.13,3.13C50.15,48.25,48.79,49.61,47.02,49.61z"/>
	<polygon class="st1" points="41.8,51.7 20.91,51.7 20.91,26.64 50.15,26.64 50.15,41.26 52.24,41.26 52.24,24.55 18.82,24.55 
		18.82,53.79 41.8,53.79 	"/>
	<rect x="37.62" y="30.81" class="st1" width="10.44" height="2.09"/>
	<rect x="37.62" y="34.99" class="st1" width="10.44" height="2.09"/>
	<rect x="23" y="45.44" class="st1" width="10.44" height="2.09"/>
	<g>
		<path class="st1" d="M28.78,38.22l-2.62-0.92c-0.97-0.35-1.66-0.83-2.07-1.43c-0.41-0.6-0.62-1.39-0.62-2.37
			c0-1.43,0.35-2.39,1.05-2.87c0.7-0.48,1.92-0.73,3.68-0.73c1.66,0,3.08,0.17,4.28,0.51l-0.19,1.96c-1.09-0.04-2.45-0.06-4.07-0.06
			c-0.75,0-1.26,0.07-1.51,0.2c-0.25,0.13-0.38,0.46-0.38,0.99c0,0.43,0.09,0.73,0.28,0.92c0.19,0.19,0.55,0.37,1.07,0.55l2.47,0.85
			c1,0.35,1.71,0.83,2.13,1.44c0.41,0.61,0.62,1.4,0.62,2.38c0,1.46-0.35,2.45-1.05,2.97c-0.7,0.52-1.96,0.78-3.77,0.78
			c-1.47,0-2.96-0.16-4.46-0.49l0.17-2.07c2.67,0.06,4.11,0.09,4.29,0.09c0.77,0,1.28-0.08,1.53-0.24c0.26-0.16,0.39-0.5,0.39-1.02
			c0-0.44-0.09-0.75-0.26-0.93C29.56,38.53,29.24,38.37,28.78,38.22z"/>
	</g>
</g>
</svg>
