<?xml version="1.0" encoding="utf-8"?>
<!-- Generator: Adobe Illustrator 24.0.1, SVG Export Plug-In . SVG Version: 6.00 Build 0)  -->
<svg version="1.1" id="Режим_изоляции"
	 xmlns="http://www.w3.org/2000/svg" xmlns:xlink="http://www.w3.org/1999/xlink" x="0px" y="0px" viewBox="0 0 71.1 82.1"
	 style="enable-background:new 0 0 71.1 82.1;" xml:space="preserve">
<style type="text/css">
	.st0{fill:#0B71BB;}
	.st1{fill:#0C5F9C;}
	.st2{fill:#464343;}
</style>
<g>
	<path class="st0" d="M35.55,0L71.1,20.52v41.05L35.55,82.1L0,61.57V20.52L35.55,0z M69.89,21.22L35.55,1.4L1.21,21.22v39.65
		L35.55,80.7l34.34-19.82V21.22z"/>
</g>
<g>
	<path class="st0" d="M35.55,9.96l0.06,0.03L62.48,25.5V56.6l-0.06,0.03L35.55,72.14l-0.06-0.03L8.62,56.6V25.5l0.06-0.03
		L35.55,9.96z M62.25,25.64l-26.7-15.41L8.85,25.64v30.83l26.7,15.41l26.7-15.41V25.64z"/>
</g>
<g>
	<circle class="st0" cx="35.3" cy="72.23" r="1.48"/>
	<circle class="st0" cx="62.11" cy="56.75" r="3.92"/>
	<path class="st0" d="M8.49,53.84c-1.6,0-2.91,1.3-2.91,2.91c0,1.6,1.3,2.91,2.91,2.91s2.91-1.3,2.91-2.91
		C11.39,55.15,10.09,53.84,8.49,53.84z"/>
	<path class="st0" d="M8.49,22.38c-1.89,0-3.41,1.53-3.41,3.41c0,1.89,1.53,3.41,3.41,3.41c1.89,0,3.41-1.53,3.41-3.41
		C11.9,23.91,10.37,22.38,8.49,22.38z"/>
	<path class="st0" d="M60.31,25.79c0,0.99,0.8,1.8,1.8,1.8c0.99,0,1.8-0.8,1.8-1.8c0-0.99-0.8-1.8-1.8-1.8
		C61.12,24,60.31,24.8,60.31,25.79z"/>
	<path class="st0" d="M35.3,8.39c-1.06,0-1.92,0.86-1.92,1.92c0,1.06,0.86,1.92,1.92,1.92c1.06,0,1.92-0.86,1.92-1.92
		C37.22,9.25,36.36,8.39,35.3,8.39z"/>
</g>
<g>
	<rect x="50.41" y="24.75" class="st1" width="1.44" height="32.59"/>
	<rect x="19.25" y="24.75" class="st1" width="1.44" height="32.59"/>
	
		<rect x="34.83" y="8.97" transform="matrix(-1.836970e-16 1 -1 -1.836970e-16 60.8185 -10.2813)" class="st1" width="1.44" height="32.59"/>
	
		<rect x="34.83" y="40.54" transform="matrix(-1.836970e-16 1 -1 -1.836970e-16 92.3795 21.2797)" class="st1" width="1.44" height="32.59"/>
	<path class="st2" d="M43.83,48.81C43.84,48.8,43.84,48.81,43.83,48.81L43.83,48.81z M43.75,48.86c-0.02,0.01-0.03,0.02-0.04,0.02
		C43.71,48.87,43.73,48.87,43.75,48.86z"/>
	<g>
		<g>
			<g>
				<path class="st1" d="M31.83,33.61c-0.69,0-1.28,0.45-1.5,1.06h-5.5c-0.22-0.62-0.8-1.06-1.5-1.06c-0.88,0-1.59,0.71-1.59,1.59
					s0.71,1.59,1.59,1.59c0.69,0,1.28-0.45,1.5-1.06h5.5c0.22,0.62,0.8,1.06,1.5,1.06c0.88,0,1.59-0.71,1.59-1.59
					S32.71,33.61,31.83,33.61z M23.34,35.74c-0.29,0-0.53-0.24-0.53-0.53s0.24-0.53,0.53-0.53s0.53,0.24,0.53,0.53
					S23.63,35.74,23.34,35.74z M31.83,35.74c-0.29,0-0.53-0.24-0.53-0.53s0.24-0.53,0.53-0.53c0.29,0,0.53,0.24,0.53,0.53
					S32.13,35.74,31.83,35.74z"/>
			</g>
		</g>
		<g>
			<g>
				<path class="st1" d="M45.64,38.92c-0.25,0-0.47,0.06-0.68,0.16l-0.91-0.91v-5.09c0-0.14-0.06-0.28-0.16-0.38l-5.31-5.31
					c0.1-0.21,0.16-0.44,0.16-0.68c0-0.88-0.71-1.59-1.59-1.59s-1.59,0.71-1.59,1.59c0,0.88,0.71,1.59,1.59,1.59
					c0.25,0,0.47-0.06,0.68-0.16l5.16,5.16v5.09c0,0.14,0.06,0.28,0.16,0.38l1.07,1.07c-0.1,0.21-0.16,0.44-0.16,0.68
					c0,0.88,0.71,1.59,1.59,1.59s1.59-0.71,1.59-1.59S46.52,38.92,45.64,38.92z M37.14,27.24c-0.29,0-0.53-0.24-0.53-0.53
					c0-0.29,0.24-0.53,0.53-0.53c0.29,0,0.53,0.24,0.53,0.53C37.67,27,37.44,27.24,37.14,27.24z M45.64,41.05
					c-0.29,0-0.53-0.24-0.53-0.53c0-0.29,0.24-0.53,0.53-0.53c0.29,0,0.53,0.24,0.53,0.53C46.17,40.81,45.93,41.05,45.64,41.05z"/>
			</g>
		</g>
		<g>
			<g>
				<path class="st1" d="M50.42,32.65v-2.22c0-0.14-0.06-0.28-0.16-0.38l-3.72-3.72c-0.1-0.1-0.23-0.16-0.38-0.16h-2.75
					c-0.22-0.62-0.8-1.06-1.5-1.06c-0.88,0-1.59,0.71-1.59,1.59c0,0.88,0.71,1.59,1.59,1.59c0.69,0,1.28-0.45,1.5-1.06h2.53
					l3.41,3.41v2c-0.62,0.22-1.06,0.8-1.06,1.5c0,0.88,0.71,1.59,1.59,1.59s1.59-0.71,1.59-1.59
					C51.48,33.45,51.03,32.87,50.42,32.65z M41.92,27.24c-0.29,0-0.53-0.24-0.53-0.53c0-0.29,0.24-0.53,0.53-0.53
					c0.29,0,0.53,0.24,0.53,0.53C42.45,27,42.21,27.24,41.92,27.24z M49.88,34.68c-0.29,0-0.53-0.24-0.53-0.53
					c0-0.29,0.24-0.53,0.53-0.53c0.29,0,0.53,0.24,0.53,0.53C50.42,34.44,50.18,34.68,49.88,34.68z"/>
			</g>
		</g>
		<g>
			<g>
				<path class="st1" d="M30.43,55.67c0.88,0,1.59-0.71,1.59-1.59s-0.71-1.59-1.59-1.59c-0.69,0-1.28,0.45-1.5,1.06h-2l-3.41-3.41
					v-2.53c0.62-0.22,1.06-0.8,1.06-1.5c0-0.88-0.71-1.59-1.59-1.59s-1.59,0.71-1.59,1.59c0,0.69,0.45,1.28,1.06,1.5v2.75
					c0,0.14,0.06,0.28,0.16,0.38l3.72,3.72c0.1,0.1,0.23,0.16,0.38,0.16h2.22C29.15,55.22,29.74,55.67,30.43,55.67z M22.99,46.64
					c-0.29,0-0.53-0.24-0.53-0.53s0.24-0.53,0.53-0.53c0.29,0,0.53,0.24,0.53,0.53S23.29,46.64,22.99,46.64z M30.43,54.61
					c-0.29,0-0.53-0.24-0.53-0.53c0-0.29,0.24-0.53,0.53-0.53c0.29,0,0.53,0.24,0.53,0.53C30.96,54.37,30.72,54.61,30.43,54.61z"/>
			</g>
		</g>
		<g>
			<g>
				<path class="st1" d="M36.81,53.84v-2.22c0-0.14-0.06-0.28-0.16-0.38l-3.72-3.72c-0.1-0.1-0.23-0.16-0.38-0.16h-2.75
					c-0.22-0.62-0.8-1.06-1.5-1.06c-0.88,0-1.59,0.71-1.59,1.59s0.71,1.59,1.59,1.59c0.69,0,1.28-0.45,1.5-1.06h2.53l3.41,3.41v2
					c-0.62,0.22-1.06,0.8-1.06,1.5c0,0.88,0.71,1.59,1.59,1.59s1.59-0.71,1.59-1.59C37.87,54.64,37.42,54.06,36.81,53.84z
					 M28.31,48.43c-0.29,0-0.53-0.24-0.53-0.53s0.24-0.53,0.53-0.53s0.53,0.24,0.53,0.53S28.61,48.43,28.31,48.43z M36.28,55.87
					c-0.29,0-0.53-0.24-0.53-0.53c0-0.29,0.24-0.53,0.53-0.53c0.29,0,0.53,0.24,0.53,0.53C36.81,55.63,36.57,55.87,36.28,55.87z"/>
			</g>
		</g>
		<g>
			<g>
				<path class="st1" d="M42.98,53.89v-7.63c0.62-0.22,1.06-0.8,1.06-1.5c0-0.88-0.71-1.59-1.59-1.59c-0.69,0-1.28,0.45-1.5,1.06
					h-5.5c-0.22-0.62-0.8-1.06-1.5-1.06s-1.28,0.45-1.5,1.06H29.4l-1.97-1.97c0.1-0.21,0.16-0.44,0.16-0.68
					c0-0.88-0.71-1.59-1.59-1.59s-1.59,0.71-1.59,1.59s0.71,1.59,1.59,1.59c0.25,0,0.47-0.06,0.68-0.16l2.13,2.13
					c0.1,0.1,0.23,0.16,0.38,0.16h3.28c0.22,0.62,0.8,1.06,1.5,1.06s1.28-0.45,1.5-1.06h5.5c0.16,0.45,0.51,0.8,0.96,0.96v7.63
					c-0.62,0.22-1.06,0.8-1.06,1.5c0,0.88,0.71,1.59,1.59,1.59s1.59-0.71,1.59-1.59C44.04,54.69,43.6,54.11,42.98,53.89z
					 M25.99,42.11c-0.29,0-0.53-0.24-0.53-0.53c0-0.29,0.24-0.53,0.53-0.53c0.29,0,0.53,0.24,0.53,0.53
					C26.52,41.87,26.29,42.11,25.99,42.11z M33.96,45.29c-0.29,0-0.53-0.24-0.53-0.53c0-0.29,0.24-0.53,0.53-0.53
					c0.29,0,0.53,0.24,0.53,0.53C34.49,45.06,34.25,45.29,33.96,45.29z M42.45,55.91c-0.29,0-0.53-0.24-0.53-0.53
					c0-0.29,0.24-0.53,0.53-0.53c0.29,0,0.53,0.24,0.53,0.53C42.98,55.67,42.74,55.91,42.45,55.91z M42.45,45.29
					c-0.29,0-0.53-0.24-0.53-0.53c0-0.29,0.24-0.53,0.53-0.53c0.29,0,0.53,0.24,0.53,0.53C42.98,45.06,42.74,45.29,42.45,45.29z"/>
			</g>
		</g>
		<g>
			<g>
				<path class="st1" d="M40.33,35.83v-1.69c0-0.14-0.06-0.28-0.16-0.38l-6.38-6.38c0.1-0.21,0.16-0.44,0.16-0.68
					c0-0.88-0.71-1.59-1.59-1.59c-0.69,0-1.28,0.45-1.5,1.06h-2.22c-0.29,0-0.53,0.24-0.53,0.53v1.37l-1.97,1.97
					c-0.21-0.1-0.44-0.16-0.68-0.16c-0.88,0-1.59,0.71-1.59,1.59c0,0.88,0.71,1.59,1.59,1.59c0.88,0,1.59-0.71,1.59-1.59
					c0-0.25-0.06-0.47-0.16-0.68l2.13-2.13c0.1-0.1,0.16-0.23,0.16-0.38v-1.06h1.69c0.22,0.62,0.8,1.06,1.5,1.06
					c0.25,0,0.47-0.06,0.68-0.16l6.22,6.22v1.47c-0.62,0.22-1.06,0.8-1.06,1.5c0,0.88,0.71,1.59,1.59,1.59
					c0.88,0,1.59-0.71,1.59-1.59C41.39,36.64,40.94,36.05,40.33,35.83z M25.46,32.02c-0.29,0-0.53-0.24-0.53-0.53
					c0-0.29,0.24-0.53,0.53-0.53c0.29,0,0.53,0.24,0.53,0.53C25.99,31.78,25.76,32.02,25.46,32.02z M32.36,27.24
					c-0.29,0-0.53-0.24-0.53-0.53c0-0.29,0.24-0.53,0.53-0.53c0.29,0,0.53,0.24,0.53,0.53C32.9,27,32.66,27.24,32.36,27.24z
					 M39.8,37.86c-0.29,0-0.53-0.24-0.53-0.53s0.24-0.53,0.53-0.53c0.29,0,0.53,0.24,0.53,0.53S40.09,37.86,39.8,37.86z"/>
			</g>
		</g>
		<g>
			<g>
				<path class="st1" d="M38.74,39.98c-0.69,0-1.28,0.45-1.5,1.06h-6.25l-3.03-3.03c-0.1-0.1-0.23-0.16-0.38-0.16h-5.62l-1.28-1.28
					v-4.34l4.1-4.1c0.21,0.1,0.44,0.16,0.68,0.16c0.88,0,1.59-0.71,1.59-1.59c0-0.88-0.71-1.59-1.59-1.59
					c-0.88,0-1.59,0.71-1.59,1.59c0,0.25,0.06,0.47,0.16,0.68l-4.25,4.25c-0.1,0.1-0.16,0.23-0.16,0.38v4.78
					c0,0.14,0.06,0.28,0.16,0.38l1.59,1.59c0.1,0.1,0.23,0.16,0.38,0.16h5.62l3.03,3.03c0.1,0.1,0.23,0.16,0.38,0.16h6.47
					c0.22,0.62,0.8,1.06,1.5,1.06c0.88,0,1.59-0.71,1.59-1.59S39.61,39.98,38.74,39.98z M25.46,26.18c0.29,0,0.53,0.24,0.53,0.53
					c0,0.29-0.24,0.53-0.53,0.53c-0.29,0-0.53-0.24-0.53-0.53C24.93,26.42,25.17,26.18,25.46,26.18z M38.74,42.11
					c-0.29,0-0.53-0.24-0.53-0.53c0-0.29,0.24-0.53,0.53-0.53c0.29,0,0.53,0.24,0.53,0.53C39.27,41.87,39.03,42.11,38.74,42.11z"/>
			</g>
		</g>
		<g>
			<g>
				<path class="st1" d="M49.88,37.86c-0.25,0-0.47,0.06-0.68,0.16l-1.97-1.97v-3.06c0.62-0.22,1.06-0.8,1.06-1.5
					c0-0.88-0.71-1.59-1.59-1.59s-1.59,0.71-1.59,1.59c0,0.69,0.45,1.28,1.06,1.5v3.28c0,0.14,0.06,0.28,0.16,0.38l2.13,2.13
					c-0.1,0.21-0.16,0.44-0.16,0.68c0,0.69,0.45,1.28,1.06,1.5v0.41l-4.09,4.09c-0.1,0.1-0.16,0.23-0.16,0.38v0.63
					c-0.62,0.22-1.06,0.8-1.06,1.5c0,0.69,0.45,1.28,1.06,1.5v1.26c-0.62,0.22-1.06,0.8-1.06,1.5c0,0.88,0.71,1.59,1.59,1.59
					s1.59-0.71,1.59-1.59c0-0.69-0.45-1.28-1.06-1.5v-1.26c0.62-0.22,1.06-0.8,1.06-1.5s-0.45-1.28-1.06-1.5v-0.41l4.09-4.09
					c0.1-0.1,0.16-0.23,0.16-0.38v-0.63c0.62-0.22,1.06-0.8,1.06-1.5C51.48,38.58,50.76,37.86,49.88,37.86z M46.7,32.02
					c-0.29,0-0.53-0.24-0.53-0.53c0-0.29,0.24-0.53,0.53-0.53c0.29,0,0.53,0.24,0.53,0.53C47.23,31.78,46.99,32.02,46.7,32.02z
					 M45.64,52.73c-0.29,0-0.53-0.24-0.53-0.53c0-0.29,0.24-0.53,0.53-0.53c0.29,0,0.53,0.24,0.53,0.53
					C46.17,52.49,45.93,52.73,45.64,52.73z M45.64,48.48c-0.29,0-0.53-0.24-0.53-0.53c0-0.29,0.24-0.53,0.53-0.53
					c0.29,0,0.53,0.24,0.53,0.53C46.17,48.24,45.93,48.48,45.64,48.48z M49.88,39.98c-0.29,0-0.53-0.24-0.53-0.53
					s0.24-0.53,0.53-0.53c0.29,0,0.53,0.24,0.53,0.53S50.18,39.98,49.88,39.98z"/>
			</g>
		</g>
	</g>
</g>
</svg>
