<?xml version="1.0" encoding="utf-8"?>
<!-- Generator: Adobe Illustrator 24.0.1, SVG Export Plug-In . SVG Version: 6.00 Build 0)  -->
<svg version="1.1" id="Режим_изоляции"
	 xmlns="http://www.w3.org/2000/svg" xmlns:xlink="http://www.w3.org/1999/xlink" x="0px" y="0px" viewBox="0 0 71.1 82.1"
	 style="enable-background:new 0 0 71.1 82.1;" xml:space="preserve">
<style type="text/css">
	.st0{fill:#0B71BB;}
	.st1{fill:#0C5F9C;}
</style>
<g>
	<path class="st0" d="M35.55,0L71.1,20.52v41.05L35.55,82.1L0,61.57V20.52L35.55,0z M69.89,21.22L35.55,1.4L1.21,21.22v39.65
		L35.55,80.7l34.34-19.82V21.22z"/>
</g>
<g>
	<path class="st0" d="M35.55,9.96l0.06,0.03L62.48,25.5V56.6l-0.06,0.03L35.55,72.14l-0.06-0.03L8.62,56.6V25.5l0.06-0.03
		L35.55,9.96z M62.25,25.64l-26.7-15.41L8.85,25.64v30.83l26.7,15.41l26.7-15.41V25.64z"/>
</g>
<g>
	<circle class="st0" cx="35.3" cy="72.23" r="1.48"/>
	<circle class="st0" cx="62.11" cy="56.75" r="3.92"/>
	<path class="st0" d="M8.49,53.84c-1.6,0-2.91,1.3-2.91,2.91c0,1.6,1.3,2.91,2.91,2.91s2.91-1.3,2.91-2.91
		C11.39,55.15,10.09,53.84,8.49,53.84z"/>
	<path class="st0" d="M8.49,22.38c-1.89,0-3.41,1.53-3.41,3.41c0,1.89,1.53,3.41,3.41,3.41c1.89,0,3.41-1.53,3.41-3.41
		C11.9,23.91,10.37,22.38,8.49,22.38z"/>
	<path class="st0" d="M60.31,25.79c0,0.99,0.8,1.8,1.8,1.8c0.99,0,1.8-0.8,1.8-1.8c0-0.99-0.8-1.8-1.8-1.8
		C61.12,24,60.31,24.8,60.31,25.79z"/>
	<path class="st0" d="M35.3,8.39c-1.06,0-1.92,0.86-1.92,1.92c0,1.06,0.86,1.92,1.92,1.92c1.06,0,1.92-0.86,1.92-1.92
		C37.22,9.25,36.36,8.39,35.3,8.39z"/>
</g>
<g>
	<path class="st1" d="M46.55,33.35h-2.2v2.2c0,4.84-3.96,8.8-8.8,8.8s-8.8-3.96-8.8-8.8s3.96-8.8,8.8-8.8h2.2v-2.2h-2.2
		c-6.05,0-11,4.95-11,11c0,3.52,1.65,6.71,4.4,8.8v13.2h2.64l3.96-3.96l3.96,3.96h2.64v-13.2c2.75-2.09,4.4-5.28,4.4-8.8V33.35z
		 M39.95,54.8l-4.4-4.4l-4.4,4.4v-9.24c2.75,1.21,5.94,1.21,8.69,0L39.95,54.8z"/>
	<polygon class="st1" points="24.55,42.15 22.35,42.15 22.35,39.95 20.15,39.95 20.15,42.15 17.95,42.15 17.95,44.35 20.15,44.35 
		20.15,46.55 22.35,46.55 22.35,44.35 24.55,44.35 	"/>
	<polygon class="st1" points="50.95,46.55 48.75,46.55 48.75,48.75 46.55,48.75 46.55,50.95 48.75,50.95 48.75,53.15 50.95,53.15 
		50.95,50.95 53.15,50.95 53.15,48.75 50.95,48.75 	"/>
	<polygon class="st1" points="42.15,31.15 44.35,31.15 44.35,28.95 46.55,28.95 46.55,26.75 44.35,26.75 44.35,24.55 42.15,24.55 
		42.15,26.75 39.95,26.75 39.95,28.95 42.15,28.95 	"/>
	<rect x="22.35" y="52.05" class="st1" width="2.2" height="2.2"/>
	<rect x="49.85" y="33.35" class="st1" width="2.2" height="2.2"/>
	<rect x="20.15" y="25.65" class="st1" width="2.2" height="2.2"/>
</g>
</svg>
