<?xml version="1.0" encoding="utf-8"?>
<!-- Generator: Adobe Illustrator 24.0.1, SVG Export Plug-In . SVG Version: 6.00 Build 0)  -->
<svg version="1.1" id="Режим_изоляции"
	 xmlns="http://www.w3.org/2000/svg" xmlns:xlink="http://www.w3.org/1999/xlink" x="0px" y="0px" viewBox="0 0 71.1 82.1"
	 style="enable-background:new 0 0 71.1 82.1;" xml:space="preserve">
<style type="text/css">
	.st0{fill:#0B71BB;}
	.st1{fill:#0C5F9C;}
</style>
<g>
	<path class="st0" d="M35.55,0L71.1,20.52v41.05L35.55,82.1L0,61.57V20.52L35.55,0z M69.89,21.22L35.55,1.4L1.21,21.22v39.65
		L35.55,80.7l34.34-19.82V21.22z"/>
</g>
<g>
	<path class="st0" d="M35.55,9.96l0.06,0.03L62.48,25.5V56.6l-0.06,0.03L35.55,72.14l-0.06-0.03L8.62,56.6V25.5l0.06-0.03
		L35.55,9.96z M62.25,25.64l-26.7-15.41L8.85,25.64v30.83l26.7,15.41l26.7-15.41V25.64z"/>
</g>
<g>
	<circle class="st0" cx="35.3" cy="72.23" r="1.48"/>
	<circle class="st0" cx="62.11" cy="56.75" r="3.92"/>
	<path class="st0" d="M8.49,53.84c-1.6,0-2.91,1.3-2.91,2.91c0,1.6,1.3,2.91,2.91,2.91s2.91-1.3,2.91-2.91
		C11.39,55.15,10.09,53.84,8.49,53.84z"/>
	<path class="st0" d="M8.49,22.38c-1.89,0-3.41,1.53-3.41,3.41c0,1.89,1.53,3.41,3.41,3.41c1.89,0,3.41-1.53,3.41-3.41
		C11.9,23.91,10.37,22.38,8.49,22.38z"/>
	<path class="st0" d="M60.31,25.79c0,0.99,0.8,1.8,1.8,1.8c0.99,0,1.8-0.8,1.8-1.8c0-0.99-0.8-1.8-1.8-1.8
		C61.12,24,60.31,24.8,60.31,25.79z"/>
	<path class="st0" d="M35.3,8.39c-1.06,0-1.92,0.86-1.92,1.92c0,1.06,0.86,1.92,1.92,1.92c1.06,0,1.92-0.86,1.92-1.92
		C37.22,9.25,36.36,8.39,35.3,8.39z"/>
</g>
<g>
	<path class="st1" d="M37.35,57.55h-3.61l-1.13-4.54l-0.52-0.1l-3.3,3.4l-3.09-1.75l1.24-4.54l-0.41-0.41l-4.33,1.24l-1.75-3.09
		l3.4-3.3l-0.1-0.52L19.1,42.8v-3.61l4.54-1.13l0.1-0.52l-3.3-3.2l1.75-3.09l4.54,1.24l0.41-0.41l-1.34-4.43l3.09-1.75l3.3,3.4
		l0.52-0.1l1.13-4.64h3.61l1.13,4.54l0.52,0.1l3.3-3.4l3.09,1.75l-1.24,4.54l0.41,0.41l4.33-1.24l1.75,3.09l-3.4,3.3l0.1,0.52
		L52,39.3v3.61l-4.54,1.13l-0.1,0.52l3.4,3.3l-1.75,3.09l-4.54-1.24l-0.41,0.41l1.24,4.54l-3.09,1.75l-3.3-3.4l-0.52,0.1
		L37.35,57.55z M35.4,55.49h0.31l1.03-4.13l2.89-0.72l2.99,3.09l0.31-0.21l-1.13-4.23l2.06-2.06l4.13,1.13l0.21-0.31l-3.09-2.99
		l0.72-2.89l4.13-1.03v-0.31l-4.13-1.03l-0.72-2.89l3.09-2.99l-0.21-0.21l-4.13,1.13l-2.06-2.06l1.13-4.12l-0.31-0.21l-2.99,3.09
		l-2.78-0.82l-1.03-4.13H35.5l-1.03,4.13l-2.99,0.82l-2.99-3.09l-0.21,0.21l1.13,4.12l-2.06,2.06l-4.13-1.13l-0.21,0.21l3.09,2.99
		l-0.83,2.89l-4.13,1.03v0.31l4.13,1.03l0.83,2.99l-3.09,2.99l0.21,0.21l4.13-1.13l2.06,2.06l-1.13,4.13l0.31,0.21l2.99-3.09
		l2.89,0.72L35.4,55.49z"/>
	<path class="st1" d="M35.6,45.17c-2.27,0-4.13-1.86-4.13-4.13c0-2.27,1.86-4.13,4.13-4.13c2.27,0,4.13,1.86,4.13,4.13
		C39.73,43.32,37.87,45.17,35.6,45.17z M35.6,38.99c-1.13,0-2.06,0.93-2.06,2.06c0,1.13,0.93,2.06,2.06,2.06
		c1.13,0,2.06-0.93,2.06-2.06C37.66,39.91,36.74,38.99,35.6,38.99z"/>
</g>
</svg>
