<?xml version="1.0" encoding="utf-8"?>
<!-- Generator: Adobe Illustrator 24.0.1, SVG Export Plug-In . SVG Version: 6.00 Build 0)  -->
<svg version="1.1" id="Capa_1" xmlns="http://www.w3.org/2000/svg" xmlns:xlink="http://www.w3.org/1999/xlink" x="0px" y="0px"
	 viewBox="0 0 496 496" style="enable-background:new 0 0 496 496;" xml:space="preserve">
<style type="text/css">
	.st0{opacity:0.05;fill:#3F3A34;stroke:#FFFFFF;stroke-width:6;stroke-miterlimit:10;}
	.st1{fill:#00A0E3;}
	.st2{fill:#333333;}
	.st3{fill:#333333;stroke:#FFFFFF;stroke-width:2;stroke-miterlimit:10;}
</style>
<path class="st0" d="M480,401.47V294.53c9.29-3.31,16-12.11,16-22.53c0-11.8-8.58-21.58-19.82-23.58l-16.59-99.54
	c7.36-4.1,12.41-11.88,12.41-20.89c0-13.23-10.77-24-24-24c-4.57,0-8.8,1.35-12.44,3.58l-93.03-75.58c0.9-2.51,1.47-5.18,1.47-7.99
	c0-13.23-10.77-24-24-24c-12.13,0-22.07,9.07-23.67,20.77l-147.9,30.81C144.21,44.66,136.67,40,128,40c-13.23,0-24,10.77-24,24
	c0,2.18,0.38,4.24,0.93,6.24l-66.94,46.34C34.04,113.73,29.23,112,24,112c-13.23,0-24,10.77-24,24c0,11.7,8.43,21.44,19.53,23.54
	l9.14,59.42C21.17,223.04,16,230.89,16,240c0,9.48,5.57,17.61,13.56,21.51l-11.02,99.17C7.94,363.17,0,372.65,0,384
	c0,13.23,10.77,24,24,24c3.2,0,6.25-0.66,9.04-1.8l34.03,38.29C65.18,447.92,64,451.81,64,456c0,13.23,10.77,24,24,24
	s24-10.77,24-24c0-2.22-0.4-4.32-0.96-6.36l43.06-30.14c3.93,2.81,8.7,4.5,13.9,4.5c2.02,0,3.97-0.33,5.85-0.81l23,34.5
	c-3.01,4.01-4.85,8.93-4.85,14.31c0,13.23,10.77,24,24,24c10.42,0,19.22-6.71,22.53-16h106.95c3.31,9.29,12.11,16,22.53,16
	c13.23,0,24-10.77,24-24c0-0.74-0.15-1.44-0.22-2.16l63.06-29.11c4.35,4.47,10.42,7.27,17.14,7.27c13.23,0,24-10.77,24-24
	C496,413.58,489.29,404.78,480,401.47z M408,368c-4.42,0-8-3.58-8-8s3.58-8,8-8s8,3.58,8,8S412.42,368,408,368z M427.76,346.43
	L464,296.6v104.87c-0.78,0.28-1.54,0.58-2.28,0.93l-32.12-32.12c1.5-3.13,2.4-6.58,2.4-10.28C432,354.96,430.42,350.3,427.76,346.43
	z M424.99,121.54l-57.06-18.29C367.53,90.38,356.98,80,344,80c-0.08,0-0.15,0.02-0.23,0.02l-10.83-35.21l92.54,75.19
	C425.3,120.51,425.14,121.02,424.99,121.54z M344,96c4.42,0,8,3.58,8,8s-3.58,8-8,8s-8-3.58-8-8S339.58,96,344,96z M363.01,118.48
	l63.74,20.42c3.38,6.54,9.59,11.34,17.07,12.67l15.08,90.46l-98.42-120.66C361.41,120.48,362.23,119.5,363.01,118.48z
	 M480.09,271.35c0,4.11-3.34,7.44-7.44,7.44c-4.11,0-7.44-3.34-7.44-7.44c0-4.11,3.34-7.44,7.44-7.44
	C476.75,263.91,480.09,267.25,480.09,271.35z M448,120c4.42,0,8,3.58,8,8s-3.58,8-8,8s-8-3.58-8-8S443.58,120,448,120z M320,16
	c4.42,0,8,3.58,8,8s-3.58,8-8,8s-8-3.58-8-8S315.58,16,320,16z M128,56c4.42,0,8,3.58,8,8s-3.58,8-8,8s-8-3.58-8-8S123.58,56,128,56
	z M40,248c-4.42,0-8-3.58-8-8s3.58-8,8-8s8,3.58,8,8S44.42,248,40,248z M44.08,213.94l-8.75-56.92c2.92-1.58,5.46-3.72,7.5-6.33
	l28.18,9.39L44.08,213.94z M47.95,135.55c-0.04-2.01-0.38-3.94-0.88-5.79l59.81-41.41l-28.65,57.3L47.95,135.55z M16,136
	c0-4.42,3.58-8,8-8s8,3.58,8,8s-3.58,8-8,8S16,140.42,16,136z M144.68,405.46c0.07,0.31,0.2,0.6,0.28,0.9L101.9,436.5
	c-3.93-2.81-8.7-4.5-13.9-4.5c-3.2,0-6.24,0.66-9.04,1.8l-34.03-38.29c0.19-0.35,0.4-0.7,0.58-1.06L144.68,405.46z M16,384
	c0-4.42,3.58-8,8-8s8,3.58,8,8s-3.58,8-8,8S16,388.42,16,384z M88,464c-4.42,0-8-3.58-8-8s3.58-8,8-8s8,3.58,8,8S92.42,464,88,464z
	 M160,400c0-4.42,3.58-8,8-8s8,3.58,8,8s-3.58,8-8,8S160,404.42,160,400z M216,480c-4.42,0-8-3.58-8-8s3.58-8,8-8s8,3.58,8,8
	S220.42,480,216,480z M345.47,464H238.53c-1.54-4.33-4.27-8.05-7.82-10.82l24.88-74.64l-15.17-5.06l-24.86,74.58
	c-1.87,0.03-3.66,0.32-5.41,0.76l-23-34.5c2.99-4.01,4.84-8.93,4.84-14.31c0-13.23-10.77-24-24-24c-9.47,0-17.61,5.57-21.51,13.56
	L50.57,378.9l97.2-51.84l-7.53-14.13l-100.13,53.4c-1.69-1.54-3.59-2.83-5.67-3.84l11.02-99.18c9.5-2.23,16.78-10.1,18.19-19.89
	l57.92-11.58l-3.14-15.69l-57.91,11.58c-0.94-1.57-2.01-3.04-3.26-4.35l29.09-58.18l55.13,18.38l5.06-15.17l-52.97-17.66
	l31.53-63.05c0.97,0.11,1.92,0.29,2.91,0.29c5.89,0,11.22-2.22,15.4-5.75l76.57,44.66l8.06-13.83l-76.48-44.62
	c0.08-0.4,0.07-0.83,0.13-1.24l147.9-30.81c0.92,1.5,1.96,2.92,3.18,4.19l-37.9,75.81l14.31,7.16l37.93-75.86l11.66,37.9
	C323.45,90.03,320,96.58,320,104c0,5.78,2.14,11.03,5.57,15.18l-12.42,20.7l13.72,8.23l12.36-20.6c1.54,0.32,3.14,0.49,4.78,0.49
	c0.39,0,0.76-0.1,1.15-0.12l106.73,130.85l-73.94-18.49l-3.87,15.51l74.17,18.54c0.4,4.14,1.76,8.02,4.01,11.27l-37.46,51.52
	c-2.17-0.64-4.41-1.09-6.78-1.09c-5.11,0-9.83,1.63-13.73,4.37l-37.62-26.87l-9.3,13.02l37.68,26.91c-0.61,2.1-1.03,4.28-1.03,6.58
	c0,7.49,3.52,14.1,8.9,18.5l-24.82,69.5c-0.03,0-0.06-0.01-0.08-0.01c-0.33,0-0.62,0.08-0.94,0.1l-39.62-99.06l-14.86,5.94
	l39.64,99.1C349.18,456.74,346.86,460.13,345.47,464z M368,480c-4.42,0-8-3.58-8-8s3.58-8,8-8s8,3.58,8,8S372.42,480,368,480z
	 M385.16,455.27c-0.63-0.65-1.35-1.2-2.06-1.78l24.82-69.5c0.02,0,0.05,0.01,0.07,0.01c3.7,0,7.15-0.9,10.28-2.41l32.12,32.12
	c-1.5,3.14-2.4,6.59-2.4,10.29c0,0.74,0.15,1.44,0.22,2.16L385.16,455.27z M472,432c-4.42,0-8-3.58-8-8s3.58-8,8-8s8,3.58,8,8
	S476.42,432,472,432z"/>
<g>
	<g>
		<g>
			<circle class="st1" cx="166.99" cy="181.41" r="23.75"/>
			<polygon class="st2" points="189.12,170.75 183.03,163.44 157.75,184.45 151.36,178.06 144.66,184.76 157.25,197.34 			"/>
			<rect x="205.06" y="167.09" class="st2" width="71.36" height="9.54"/>
			<rect x="205.06" y="186.18" class="st2" width="80.91" height="9.54"/>
			<polygon class="st2" points="189.12,218.36 183.03,211.05 157.75,232.06 151.36,225.57 144.66,232.37 157.25,244.95 			"/>
			<rect x="205.06" y="214.7" class="st2" width="99.89" height="9.54"/>
			<rect x="205.06" y="233.79" class="st2" width="19.08" height="9.54"/>
			<rect x="233.69" y="233.79" class="st2" width="71.36" height="9.54"/>
			<polygon class="st2" points="189.12,265.97 183.03,258.66 157.75,279.67 151.36,273.18 144.66,279.98 157.25,292.56 			"/>
			<rect x="205.06" y="262.31" class="st2" width="99.89" height="9.54"/>
			<rect x="205.06" y="281.3" class="st2" width="71.36" height="9.54"/>
			<rect x="285.97" y="281.3" class="st2" width="19.08" height="9.54"/>
			<rect x="285.97" y="167.09" class="st2" width="19.08" height="9.54"/>
			<path class="st3" d="M381.19,319.36h-9.54h-9.54h-9.54h-9.54V124.25c0-13.1-10.66-23.75-23.75-23.75H124.15
				c-13.1,0-23.75,10.66-23.75,23.75s10.66,23.75,23.75,23.75V395.5h199.88v-28.53h19.08v-19.08h9.54h9.54h9.54h9.54
				c7.92,0,14.31-6.4,14.31-14.31C395.6,325.66,389,319.36,381.19,319.36z M333.58,124.25v195.11h-9.54v-180.8h-4.77
				c-7.92,0-14.31-6.4-14.31-14.31s6.4-14.31,14.31-14.31C327.18,109.94,333.58,116.44,333.58,124.25z M109.94,124.25
				c0-7.92,6.4-14.31,14.31-14.31h176.13c-3.05,3.96-4.87,8.93-4.87,14.31s1.83,10.25,4.87,14.31H124.15
				C116.34,138.57,109.94,132.17,109.94,124.25z M133.7,386.06V148.11h180.8v171.36h-134l-42.84,14.31l42.84,14.31h134v38.07
				L133.7,386.06L133.7,386.06z M167.8,333.68l8.73-2.94v5.79L167.8,333.68z M333.58,357.43h-9.54v-9.54h9.54V357.43z
				 M343.12,338.45H186.08v-9.54h157.04V338.45L343.12,338.45z M362.1,338.45h-9.54v-9.54h9.54V338.45z M381.19,338.45h-9.54v-9.54
				h9.54c2.64,0,4.77,2.13,4.77,4.77C385.96,336.32,383.83,338.45,381.19,338.45z"/>
		</g>
	</g>
	<rect x="351.44" y="327.79" class="st1" width="11.78" height="11.78"/>
</g>
</svg>
