<?xml version="1.0" encoding="utf-8"?>
<!-- Generator: Adobe Illustrator 24.0.1, SVG Export Plug-In . SVG Version: 6.00 Build 0)  -->
<svg version="1.1" id="Capa_1" xmlns="http://www.w3.org/2000/svg" xmlns:xlink="http://www.w3.org/1999/xlink" x="0px" y="0px"
	 viewBox="0 0 496 496" style="enable-background:new 0 0 496 496;" xml:space="preserve">
<style type="text/css">
	.st0{opacity:0.05;fill:#3F3A34;stroke:#FFFFFF;stroke-width:6;stroke-miterlimit:10;}
	.st1{fill:#00A0E3;}
	.st2{stroke:#FFFFFF;stroke-width:2;stroke-miterlimit:10;}
	.st3{fill:none;stroke:#000000;stroke-width:4;stroke-miterlimit:10;}
</style>
<path class="st0" d="M480,401.47V294.53c9.29-3.31,16-12.11,16-22.53c0-11.8-8.58-21.58-19.82-23.58l-16.59-99.54
	c7.36-4.1,12.41-11.88,12.41-20.89c0-13.23-10.77-24-24-24c-4.57,0-8.8,1.35-12.44,3.58l-93.03-75.58c0.9-2.51,1.47-5.18,1.47-7.99
	c0-13.23-10.77-24-24-24c-12.13,0-22.07,9.07-23.67,20.77l-147.9,30.81C144.21,44.66,136.67,40,128,40c-13.23,0-24,10.77-24,24
	c0,2.18,0.38,4.24,0.93,6.24l-66.94,46.34C34.04,113.73,29.23,112,24,112c-13.23,0-24,10.77-24,24c0,11.7,8.43,21.44,19.53,23.54
	l9.14,59.42C21.17,223.04,16,230.89,16,240c0,9.48,5.57,17.61,13.56,21.51l-11.02,99.17C7.94,363.17,0,372.65,0,384
	c0,13.23,10.77,24,24,24c3.2,0,6.25-0.66,9.04-1.8l34.03,38.29C65.18,447.92,64,451.81,64,456c0,13.23,10.77,24,24,24
	s24-10.77,24-24c0-2.22-0.4-4.32-0.96-6.36l43.06-30.14c3.93,2.81,8.7,4.5,13.9,4.5c2.02,0,3.97-0.33,5.85-0.81l23,34.5
	c-3.01,4.01-4.85,8.93-4.85,14.31c0,13.23,10.77,24,24,24c10.42,0,19.22-6.71,22.53-16h106.95c3.31,9.29,12.11,16,22.53,16
	c13.23,0,24-10.77,24-24c0-0.74-0.15-1.44-0.22-2.16l63.06-29.11c4.35,4.47,10.42,7.27,17.14,7.27c13.23,0,24-10.77,24-24
	C496,413.58,489.29,404.78,480,401.47z M408,368c-4.42,0-8-3.58-8-8s3.58-8,8-8s8,3.58,8,8S412.42,368,408,368z M427.76,346.43
	L464,296.6v104.87c-0.78,0.28-1.54,0.58-2.28,0.93l-32.12-32.12c1.5-3.13,2.4-6.58,2.4-10.28C432,354.96,430.42,350.3,427.76,346.43
	z M424.99,121.54l-57.06-18.29C367.53,90.38,356.98,80,344,80c-0.08,0-0.15,0.02-0.23,0.02l-10.83-35.21l92.54,75.19
	C425.3,120.51,425.14,121.02,424.99,121.54z M344,96c4.42,0,8,3.58,8,8s-3.58,8-8,8s-8-3.58-8-8S339.58,96,344,96z M363.01,118.48
	l63.74,20.42c3.38,6.54,9.59,11.34,17.07,12.67l15.08,90.46l-98.42-120.66C361.41,120.48,362.23,119.5,363.01,118.48z
	 M480.09,271.35c0,4.11-3.34,7.44-7.44,7.44c-4.11,0-7.44-3.34-7.44-7.44c0-4.11,3.34-7.44,7.44-7.44
	C476.75,263.91,480.09,267.25,480.09,271.35z M448,120c4.42,0,8,3.58,8,8s-3.58,8-8,8s-8-3.58-8-8S443.58,120,448,120z M320,16
	c4.42,0,8,3.58,8,8s-3.58,8-8,8s-8-3.58-8-8S315.58,16,320,16z M128,56c4.42,0,8,3.58,8,8s-3.58,8-8,8s-8-3.58-8-8S123.58,56,128,56
	z M40,248c-4.42,0-8-3.58-8-8s3.58-8,8-8s8,3.58,8,8S44.42,248,40,248z M44.08,213.94l-8.75-56.92c2.92-1.58,5.46-3.72,7.5-6.33
	l28.18,9.39L44.08,213.94z M47.95,135.55c-0.04-2.01-0.38-3.94-0.88-5.79l59.81-41.41l-28.65,57.3L47.95,135.55z M16,136
	c0-4.42,3.58-8,8-8s8,3.58,8,8s-3.58,8-8,8S16,140.42,16,136z M144.68,405.46c0.07,0.31,0.2,0.6,0.28,0.9L101.9,436.5
	c-3.93-2.81-8.7-4.5-13.9-4.5c-3.2,0-6.24,0.66-9.04,1.8l-34.03-38.29c0.19-0.35,0.4-0.7,0.58-1.06L144.68,405.46z M16,384
	c0-4.42,3.58-8,8-8s8,3.58,8,8s-3.58,8-8,8S16,388.42,16,384z M88,464c-4.42,0-8-3.58-8-8s3.58-8,8-8s8,3.58,8,8S92.42,464,88,464z
	 M160,400c0-4.42,3.58-8,8-8s8,3.58,8,8s-3.58,8-8,8S160,404.42,160,400z M216,480c-4.42,0-8-3.58-8-8s3.58-8,8-8s8,3.58,8,8
	S220.42,480,216,480z M345.47,464H238.53c-1.54-4.33-4.27-8.05-7.82-10.82l24.88-74.64l-15.17-5.06l-24.86,74.58
	c-1.87,0.03-3.66,0.32-5.41,0.76l-23-34.5c2.99-4.01,4.84-8.93,4.84-14.31c0-13.23-10.77-24-24-24c-9.47,0-17.61,5.57-21.51,13.56
	L50.57,378.9l97.2-51.84l-7.53-14.13l-100.13,53.4c-1.69-1.54-3.59-2.83-5.67-3.84l11.02-99.18c9.5-2.23,16.78-10.1,18.19-19.89
	l57.92-11.58l-3.14-15.69l-57.91,11.58c-0.94-1.57-2.01-3.04-3.26-4.35l29.09-58.18l55.13,18.38l5.06-15.17l-52.97-17.66
	l31.53-63.05c0.97,0.11,1.92,0.29,2.91,0.29c5.89,0,11.22-2.22,15.4-5.75l76.57,44.66l8.06-13.83l-76.48-44.62
	c0.08-0.4,0.07-0.83,0.13-1.24l147.9-30.81c0.92,1.5,1.96,2.92,3.18,4.19l-37.9,75.81l14.31,7.16l37.93-75.86l11.66,37.9
	C323.45,90.03,320,96.58,320,104c0,5.78,2.14,11.03,5.57,15.18l-12.42,20.7l13.72,8.23l12.36-20.6c1.54,0.32,3.14,0.49,4.78,0.49
	c0.39,0,0.76-0.1,1.15-0.12l106.73,130.85l-73.94-18.49l-3.87,15.51l74.17,18.54c0.4,4.14,1.76,8.02,4.01,11.27l-37.46,51.52
	c-2.17-0.64-4.41-1.09-6.78-1.09c-5.11,0-9.83,1.63-13.73,4.37l-37.62-26.87l-9.3,13.02l37.68,26.91c-0.61,2.1-1.03,4.28-1.03,6.58
	c0,7.49,3.52,14.1,8.9,18.5l-24.82,69.5c-0.03,0-0.06-0.01-0.08-0.01c-0.33,0-0.62,0.08-0.94,0.1l-39.62-99.06l-14.86,5.94
	l39.64,99.1C349.18,456.74,346.86,460.13,345.47,464z M368,480c-4.42,0-8-3.58-8-8s3.58-8,8-8s8,3.58,8,8S372.42,480,368,480z
	 M385.16,455.27c-0.63-0.65-1.35-1.2-2.06-1.78l24.82-69.5c0.02,0,0.05,0.01,0.07,0.01c3.7,0,7.15-0.9,10.28-2.41l32.12,32.12
	c-1.5,3.14-2.4,6.59-2.4,10.29c0,0.74,0.15,1.44,0.22,2.16L385.16,455.27z M472,432c-4.42,0-8-3.58-8-8s3.58-8,8-8s8,3.58,8,8
	S476.42,432,472,432z"/>
<g>
	<g>
		<g>
			<path class="st1" d="M171.28,155.1l-0.72,0.48l0.72,0.18V155.1z"/>
			<path class="st1" d="M357.8,294.81h-4.32v-95.9c0-2.28,0.48-4.38,1.2-6.41c-2.34-4.56-4.79-8.99-7.67-13.19l8.75-14.56
				l-25.65-25.65l-14.56,8.75c-13.61-9.29-29.19-15.76-45.31-18.76l-4.14-16.48h-36.26l-4.14,16.48c-9.47,1.8-18.7,4.73-27.57,8.81
				c1.2,4.14,1.86,8.51,1.86,13.07l-13.67,33.5c15.52-14.92,38.42-23.91,61.67-23.91c47.65,0,86.31,38.66,86.31,86.31
				s-38.66,86.31-86.31,86.31c-33.44,0-62.39-19.06-76.72-46.87v13.31c0,10.61-8.57,19.18-19.18,19.18c-1.86,0-3.6-0.36-5.27-0.84
				l-6.59,11.03l25.65,25.65l14.56-8.75c13.61,9.29,29.13,15.76,45.31,18.76l4.14,16.48h36.26l4.14-16.48
				c16.12-3.06,31.71-9.47,45.31-18.76l14.56,8.75l25.65-25.65l-8.75-14.56C351.15,308.29,354.8,301.7,357.8,294.81L357.8,294.81z"
				/>
		</g>
		<g>
			<path class="st2" d="M147.31,275.63h9.59v9.59h-9.59V275.63z"/>
			<path class="st2" d="M147.31,294.81h9.59v9.59h-9.59V294.81z"/>
			<path class="st2" d="M147.31,256.45h9.59v9.59h-9.59V256.45z"/>
			<path class="st2" d="M267.18,203.71c0-8.93-6.11-16.36-14.38-18.52v-10.25h-9.59v10.25c-8.27,2.16-14.38,9.59-14.38,18.52
				c0,8.93,6.11,16.36,14.38,18.52v96.56h9.59v-96.56C261.07,220.07,267.18,212.64,267.18,203.71z M248,213.3
				c-5.27,0-9.59-4.32-9.59-9.59c0-5.27,4.32-9.59,9.59-9.59s9.59,4.32,9.59,9.59C257.59,208.98,253.27,213.3,248,213.3z"/>
			<path class="st2" d="M219.23,223.55v-34.22h-9.59v34.22c-8.27,2.16-14.38,9.59-14.38,18.52s6.11,16.36,14.38,18.52v48.61h9.59
				v-48.61c8.27-2.16,14.38-9.59,14.38-18.52S227.5,225.7,219.23,223.55L219.23,223.55z M214.44,251.66c-5.27,0-9.59-4.32-9.59-9.59
				s4.32-9.59,9.59-9.59c5.27,0,9.59,4.32,9.59,9.59S219.71,251.66,214.44,251.66z"/>
			<path class="st2" d="M286.36,252.32v-62.99h-9.59v62.99c-8.27,2.16-14.38,9.59-14.38,18.52c0,8.93,6.11,16.36,14.38,18.52v19.84
				h9.59v-19.84c8.27-2.16,14.38-9.59,14.38-18.52C300.74,261.9,294.63,254.47,286.36,252.32z M281.56,280.42
				c-5.27,0-9.59-4.32-9.59-9.59c0-5.27,4.32-9.59,9.59-9.59c5.27,0,9.59,4.32,9.59,9.59C291.15,276.11,286.84,280.42,281.56,280.42
				z"/>
			<path class="st2" d="M248,155.76c-16.06,0-32.07,4.2-45.85,11.63c1.74-5.21,2.7-10.73,2.7-16.42c0-20.8-12.11-39.02-31.65-47.53
				l-6.71-2.94v49.15l-28.77-7.19V100.5l-6.71,2.94c-19.54,8.51-31.65,26.73-31.65,47.53c0,19.9,11.21,38,28.77,46.99V299.6
				c0,13.25,10.73,23.97,23.97,23.97c12.29,0,22.36-9.35,23.73-21.28c17.02,22.3,43.45,35.66,72.16,35.66
				c50.23,0,91.1-40.88,91.1-91.1S298.23,155.76,248,155.76z M166.49,299.6c0,7.91-6.47,14.38-14.38,14.38
				c-7.91,0-14.38-6.47-14.38-14.38V191.78l-2.88-1.26c-15.7-6.89-25.89-22.42-25.89-39.56c0-14.38,7.19-27.33,19.18-35.12v34.1
				l47.95,11.99v-46.09c11.99,7.79,19.18,20.74,19.18,35.12c0,17.14-10.19,32.66-25.89,39.56l-2.88,1.26V299.6z M248,328.37
				c-30.27,0-57.72-16.6-71.92-43.33v-87.09c5.09-2.64,9.59-6.05,13.55-10.07l0.06,0.06c14.68-14.14,36.44-22.6,58.32-22.6
				c44.95,0,81.51,36.56,81.51,81.51S292.95,328.37,248,328.37z"/>
			<path class="st2" d="M396.64,299.6V198.91c0-13.25-10.73-23.97-23.97-23.97s-23.97,10.73-23.97,23.97V299.6h9.59v50.76
				l-5.09,5.09l5.75,40.04h27.51l5.69-40.04l-5.09-5.09V299.6H396.64z M358.28,290.01v-9.59h28.77v9.59H358.28z M387.05,213.3v57.54
				h-9.59V213.3H387.05z M367.87,270.84h-9.59V213.3h9.59V270.84z M372.66,184.53c7.91,0,14.38,6.47,14.38,14.38v4.79h-28.77v-4.79
				C358.28,191,364.75,184.53,372.66,184.53z M381.95,358.82l-3.84,27.09h-10.85l-3.9-27.09l4.5-4.5V299.6h9.59v54.72L381.95,358.82
				z"/>
		</g>
	</g>
	<path class="st3" d="M169.72,199.33c16.12-26.13,46.27-44.41,78.28-43.99c45.07,0.6,91.52,38.3,91.52,91.52
		c0,50.53-41,91.52-91.52,91.52c-32.13,0-61.91-18.04-77.74-43.21"/>
</g>
</svg>
