<?xml version="1.0" encoding="utf-8"?>
<!-- Generator: Adobe Illustrator 24.0.1, SVG Export Plug-In . SVG Version: 6.00 Build 0)  -->
<svg version="1.1" id="Capa_1" xmlns="http://www.w3.org/2000/svg" xmlns:xlink="http://www.w3.org/1999/xlink" x="0px" y="0px"
	 viewBox="0 0 496 496" style="enable-background:new 0 0 496 496;" xml:space="preserve">
<style type="text/css">
	.st0{opacity:0.05;fill:#3F3A34;stroke:#FFFFFF;stroke-width:6;stroke-miterlimit:10;}
	.st1{fill:#00A0E3;}
	.st2{stroke:#FFFFFF;stroke-width:2;stroke-miterlimit:10;}
	.st3{stroke:#FFFFFF;stroke-width:4;stroke-miterlimit:10;}
</style>
<path class="st0" d="M480,401.47V294.53c9.29-3.31,16-12.11,16-22.53c0-11.8-8.58-21.58-19.82-23.58l-16.59-99.54
	c7.36-4.1,12.41-11.88,12.41-20.89c0-13.23-10.77-24-24-24c-4.57,0-8.8,1.35-12.44,3.58l-93.03-75.58c0.9-2.51,1.47-5.18,1.47-7.99
	c0-13.23-10.77-24-24-24c-12.13,0-22.07,9.07-23.67,20.77l-147.9,30.81C144.21,44.66,136.67,40,128,40c-13.23,0-24,10.77-24,24
	c0,2.18,0.38,4.24,0.93,6.24l-66.94,46.34C34.04,113.73,29.23,112,24,112c-13.23,0-24,10.77-24,24c0,11.7,8.43,21.44,19.53,23.54
	l9.14,59.42C21.17,223.04,16,230.89,16,240c0,9.48,5.57,17.61,13.56,21.51l-11.02,99.17C7.94,363.17,0,372.65,0,384
	c0,13.23,10.77,24,24,24c3.2,0,6.25-0.66,9.04-1.8l34.03,38.29C65.18,447.92,64,451.81,64,456c0,13.23,10.77,24,24,24
	s24-10.77,24-24c0-2.22-0.4-4.32-0.96-6.36l43.06-30.14c3.93,2.81,8.7,4.5,13.9,4.5c2.02,0,3.97-0.33,5.85-0.81l23,34.5
	c-3.01,4.01-4.85,8.93-4.85,14.31c0,13.23,10.77,24,24,24c10.42,0,19.22-6.71,22.53-16h106.95c3.31,9.29,12.11,16,22.53,16
	c13.23,0,24-10.77,24-24c0-0.74-0.15-1.44-0.22-2.16l63.06-29.11c4.35,4.47,10.42,7.27,17.14,7.27c13.23,0,24-10.77,24-24
	C496,413.58,489.29,404.78,480,401.47z M408,368c-4.42,0-8-3.58-8-8s3.58-8,8-8s8,3.58,8,8S412.42,368,408,368z M427.76,346.43
	L464,296.6v104.87c-0.78,0.28-1.54,0.58-2.28,0.93l-32.12-32.12c1.5-3.13,2.4-6.58,2.4-10.28C432,354.96,430.42,350.3,427.76,346.43
	z M424.99,121.54l-57.06-18.29C367.53,90.38,356.98,80,344,80c-0.08,0-0.15,0.02-0.23,0.02l-10.83-35.21l92.54,75.19
	C425.3,120.51,425.14,121.02,424.99,121.54z M344,96c4.42,0,8,3.58,8,8s-3.58,8-8,8s-8-3.58-8-8S339.58,96,344,96z M363.01,118.48
	l63.74,20.42c3.38,6.54,9.59,11.34,17.07,12.67l15.08,90.46l-98.42-120.66C361.41,120.48,362.23,119.5,363.01,118.48z
	 M480.09,271.35c0,4.11-3.34,7.44-7.44,7.44c-4.11,0-7.44-3.34-7.44-7.44c0-4.11,3.34-7.44,7.44-7.44
	C476.75,263.91,480.09,267.25,480.09,271.35z M448,120c4.42,0,8,3.58,8,8s-3.58,8-8,8s-8-3.58-8-8S443.58,120,448,120z M320,16
	c4.42,0,8,3.58,8,8s-3.58,8-8,8s-8-3.58-8-8S315.58,16,320,16z M128,56c4.42,0,8,3.58,8,8s-3.58,8-8,8s-8-3.58-8-8S123.58,56,128,56
	z M40,248c-4.42,0-8-3.58-8-8s3.58-8,8-8s8,3.58,8,8S44.42,248,40,248z M44.08,213.94l-8.75-56.92c2.92-1.58,5.46-3.72,7.5-6.33
	l28.18,9.39L44.08,213.94z M47.95,135.55c-0.04-2.01-0.38-3.94-0.88-5.79l59.81-41.41l-28.65,57.3L47.95,135.55z M16,136
	c0-4.42,3.58-8,8-8s8,3.58,8,8s-3.58,8-8,8S16,140.42,16,136z M144.68,405.46c0.07,0.31,0.2,0.6,0.28,0.9L101.9,436.5
	c-3.93-2.81-8.7-4.5-13.9-4.5c-3.2,0-6.24,0.66-9.04,1.8l-34.03-38.29c0.19-0.35,0.4-0.7,0.58-1.06L144.68,405.46z M16,384
	c0-4.42,3.58-8,8-8s8,3.58,8,8s-3.58,8-8,8S16,388.42,16,384z M88,464c-4.42,0-8-3.58-8-8s3.58-8,8-8s8,3.58,8,8S92.42,464,88,464z
	 M160,400c0-4.42,3.58-8,8-8s8,3.58,8,8s-3.58,8-8,8S160,404.42,160,400z M216,480c-4.42,0-8-3.58-8-8s3.58-8,8-8s8,3.58,8,8
	S220.42,480,216,480z M345.47,464H238.53c-1.54-4.33-4.27-8.05-7.82-10.82l24.88-74.64l-15.17-5.06l-24.86,74.58
	c-1.87,0.03-3.66,0.32-5.41,0.76l-23-34.5c2.99-4.01,4.84-8.93,4.84-14.31c0-13.23-10.77-24-24-24c-9.47,0-17.61,5.57-21.51,13.56
	L50.57,378.9l97.2-51.84l-7.53-14.13l-100.13,53.4c-1.69-1.54-3.59-2.83-5.67-3.84l11.02-99.18c9.5-2.23,16.78-10.1,18.19-19.89
	l57.92-11.58l-3.14-15.69l-57.91,11.58c-0.94-1.57-2.01-3.04-3.26-4.35l29.09-58.18l55.13,18.38l5.06-15.17l-52.97-17.66
	l31.53-63.05c0.97,0.11,1.92,0.29,2.91,0.29c5.89,0,11.22-2.22,15.4-5.75l76.57,44.66l8.06-13.83l-76.48-44.62
	c0.08-0.4,0.07-0.83,0.13-1.24l147.9-30.81c0.92,1.5,1.96,2.92,3.18,4.19l-37.9,75.81l14.31,7.16l37.93-75.86l11.66,37.9
	C323.45,90.03,320,96.58,320,104c0,5.78,2.14,11.03,5.57,15.18l-12.42,20.7l13.72,8.23l12.36-20.6c1.54,0.32,3.14,0.49,4.78,0.49
	c0.39,0,0.76-0.1,1.15-0.12l106.73,130.85l-73.94-18.49l-3.87,15.51l74.17,18.54c0.4,4.14,1.76,8.02,4.01,11.27l-37.46,51.52
	c-2.17-0.64-4.41-1.09-6.78-1.09c-5.11,0-9.83,1.63-13.73,4.37l-37.62-26.87l-9.3,13.02l37.68,26.91c-0.61,2.1-1.03,4.28-1.03,6.58
	c0,7.49,3.52,14.1,8.9,18.5l-24.82,69.5c-0.03,0-0.06-0.01-0.08-0.01c-0.33,0-0.62,0.08-0.94,0.1l-39.62-99.06l-14.86,5.94
	l39.64,99.1C349.18,456.74,346.86,460.13,345.47,464z M368,480c-4.42,0-8-3.58-8-8s3.58-8,8-8s8,3.58,8,8S372.42,480,368,480z
	 M385.16,455.27c-0.63-0.65-1.35-1.2-2.06-1.78l24.82-69.5c0.02,0,0.05,0.01,0.07,0.01c3.7,0,7.15-0.9,10.28-2.41l32.12,32.12
	c-1.5,3.14-2.4,6.59-2.4,10.29c0,0.74,0.15,1.44,0.22,2.16L385.16,455.27z M472,432c-4.42,0-8-3.58-8-8s3.58-8,8-8s8,3.58,8,8
	S476.42,432,472,432z"/>
<g>
	<path class="st1" d="M214.69,119.53v33.31h4.76c5.23,0,9.52,4.28,9.52,9.52c0,1.72-0.48,3.33-1.31,4.76h63.16v-47.58H214.69z"/>
	<path class="st1" d="M300.34,119.53h76.13v23.79h-76.13V119.53z"/>
	<path class="st2" d="M395.5,243.24V100.5H195.66v47.58h-26.35c4.52-5.06,7.32-11.72,7.32-19.03c0-15.76-12.79-28.55-28.55-28.55
		s-28.55,12.79-28.55,28.55c0,8.56,3.81,16.18,9.75,21.41c-16.71,5.83-28.79,21.77-28.79,40.44v14.27
		c0,10.47,8.56,19.03,19.03,19.03v49.96c0,2.56,0.65,5,1.67,7.14h-20.7v38.06h20.7c-1.07,2.97-1.67,6.19-1.67,9.52
		c0,8.56,3.81,16.18,9.75,21.41c-16.71,5.83-28.79,21.77-28.79,40.44v4.76h85.65h9.52h76.13h9.52h85.65v-4.76
		c0-18.68-12.07-34.61-28.79-40.44c5.95-5.23,9.75-12.91,9.75-21.41c0-3.33-0.59-6.54-1.67-9.52h49.25v-38.06h-30.63l-22.84-38.06
		H395.5z M205.18,110.02h180.81v123.71H205.18v-57.1h14.27c7.85,0,14.27-6.42,14.27-14.27c0-7.85-6.42-14.27-14.27-14.27h-14.27
		V110.02z M174.96,281.31c1.01-2.14,1.67-4.58,1.67-7.14v-97.54h19.03v66.61h53.47l-22.84,38.06H174.96z M260.19,243.24h12.67
		l-22.84,38.06h-12.67L260.19,243.24z M281.31,247.76v33.54h-20.16L281.31,247.76z M290.82,243.24h9.52v38.06h-9.52V243.24z
		 M309.85,247.76l20.16,33.54h-20.16V247.76z M148.08,110.02c10.47,0,19.03,8.56,19.03,19.03s-8.56,19.03-19.03,19.03
		s-19.03-8.56-19.03-19.03S137.61,110.02,148.08,110.02z M129.05,274.17V190.9h-9.52v23.79c-5.23,0-9.52-4.28-9.52-9.52V190.9
		c0-18.38,14.93-33.31,33.31-33.31h76.13c2.62,0,4.76,2.14,4.76,4.76c0,2.62-2.14,4.76-4.76,4.76h-52.34v107.06
		c0,3.93-3.21,7.14-7.14,7.14c-3.93,0-7.14-3.21-7.14-7.14v-64.23h-9.52v64.23c0,3.93-3.21,7.14-7.14,7.14
		S129.05,278.09,129.05,274.17z M148.08,309.85c10.47,0,19.03,8.56,19.03,19.03s-8.56,19.03-19.03,19.03s-19.03-8.56-19.03-19.03
		S137.61,309.85,148.08,309.85z M110.37,385.98c2.32-16.12,16.24-28.55,32.95-28.55h9.52c16.77,0,30.63,12.43,32.95,28.55H110.37z
		 M166.88,350.3c5.95-5.23,9.75-12.91,9.75-21.41c0-3.33-0.59-6.54-1.67-9.52h31.88c-1.07,2.97-1.67,6.19-1.67,9.52
		c0,8.56,3.81,16.18,9.75,21.41c-10.41,3.63-19.03,11.18-24.03,20.88C185.91,361.48,177.28,353.99,166.88,350.3L166.88,350.3z
		 M252.76,328.89c0,10.47-8.56,19.03-19.03,19.03c-10.47,0-19.03-8.56-19.03-19.03s8.56-19.03,19.03-19.03
		C244.19,309.85,252.76,318.42,252.76,328.89z M196.02,385.98c2.32-16.12,16.24-28.55,32.95-28.55h9.52
		c16.77,0,30.63,12.43,32.95,28.55H196.02z M252.52,350.3c5.95-5.23,9.75-12.91,9.75-21.41c0-3.33-0.59-6.54-1.67-9.52h31.88
		c-1.07,2.97-1.67,6.19-1.67,9.52c0,8.56,3.81,16.18,9.75,21.41c-10.41,3.63-19.03,11.18-24.03,20.88
		C271.55,361.48,262.93,353.99,252.52,350.3L252.52,350.3z M324.13,357.44c16.77,0,30.63,12.43,32.95,28.55h-75.42
		c2.32-16.12,16.24-28.55,32.95-28.55H324.13z M319.37,347.92c-10.47,0-19.03-8.56-19.03-19.03s8.56-19.03,19.03-19.03
		s19.03,8.56,19.03,19.03S329.84,347.92,319.37,347.92z M385.98,309.85H340.6c-5.23-5.83-12.79-9.52-21.23-9.52
		c-8.45,0-16,3.69-21.23,9.52h-43.18c-5.23-5.83-12.79-9.52-21.23-9.52c-8.45,0-16,3.69-21.23,9.52h-43.18
		c-5.23-5.83-12.79-9.52-21.23-9.52c-8.45,0-16,3.69-21.23,9.52h-16.83v-19.03h275.97V309.85z M353.81,281.31h-12.67l-22.84-38.06
		h12.67L353.81,281.31z"/>
	<path class="st3" d="M376.47,157.6h-9.52v57.1h-9.52v-47.58h-9.52v47.58h-9.52v-19.03h-9.52v19.03h-9.52v-28.55h-9.52v28.55h-9.52
		v-9.52h-9.52v9.52h-9.52v-38.06h-9.52v38.06h-9.52v9.52h114.19V157.6z"/>
	<path d="M300.34,119.53h9.52v9.52h-9.52V119.53z"/>
	<path d="M319.37,119.53h57.1v9.52h-57.1V119.53z"/>
	<path d="M300.34,138.56h76.13v9.52h-76.13V138.56z"/>
	<path class="st3" d="M214.69,195.66h9.52v9.52h-9.52V195.66z"/>
	<path class="st3" d="M214.69,214.69h9.52v9.52h-9.52V214.69z"/>
</g>
</svg>
