<?xml version="1.0" encoding="utf-8"?>
<!-- Generator: Adobe Illustrator 24.0.1, SVG Export Plug-In . SVG Version: 6.00 Build 0)  -->
<svg version="1.1" id="Capa_1" xmlns="http://www.w3.org/2000/svg" xmlns:xlink="http://www.w3.org/1999/xlink" x="0px" y="0px"
	 viewBox="0 0 496 496" style="enable-background:new 0 0 496 496;" xml:space="preserve">
<style type="text/css">
	.st0{opacity:0.05;fill:#3F3A34;stroke:#FFFFFF;stroke-width:6;stroke-miterlimit:10;}
	.st1{fill:#00A0E3;}
	.st2{stroke:#FFFFFF;stroke-width:4;stroke-miterlimit:10;}
	.st3{fill:none;stroke:#000000;stroke-width:6;stroke-miterlimit:10;}
</style>
<path class="st0" d="M480,401.47V294.53c9.29-3.31,16-12.11,16-22.53c0-11.8-8.58-21.58-19.82-23.58l-16.59-99.54
	c7.36-4.1,12.41-11.88,12.41-20.89c0-13.23-10.77-24-24-24c-4.57,0-8.8,1.35-12.44,3.58l-93.03-75.58c0.9-2.51,1.47-5.18,1.47-7.99
	c0-13.23-10.77-24-24-24c-12.13,0-22.07,9.07-23.67,20.77l-147.9,30.81C144.21,44.66,136.67,40,128,40c-13.23,0-24,10.77-24,24
	c0,2.18,0.38,4.24,0.93,6.24l-66.94,46.34C34.04,113.73,29.23,112,24,112c-13.23,0-24,10.77-24,24c0,11.7,8.43,21.44,19.53,23.54
	l9.14,59.42C21.17,223.04,16,230.89,16,240c0,9.48,5.57,17.61,13.56,21.51l-11.02,99.17C7.94,363.17,0,372.65,0,384
	c0,13.23,10.77,24,24,24c3.2,0,6.25-0.66,9.04-1.8l34.03,38.29C65.18,447.92,64,451.81,64,456c0,13.23,10.77,24,24,24
	s24-10.77,24-24c0-2.22-0.4-4.32-0.96-6.36l43.06-30.14c3.93,2.81,8.7,4.5,13.9,4.5c2.02,0,3.97-0.33,5.85-0.81l23,34.5
	c-3.01,4.01-4.85,8.93-4.85,14.31c0,13.23,10.77,24,24,24c10.42,0,19.22-6.71,22.53-16h106.95c3.31,9.29,12.11,16,22.53,16
	c13.23,0,24-10.77,24-24c0-0.74-0.15-1.44-0.22-2.16l63.06-29.11c4.35,4.47,10.42,7.27,17.14,7.27c13.23,0,24-10.77,24-24
	C496,413.58,489.29,404.78,480,401.47z M408,368c-4.42,0-8-3.58-8-8s3.58-8,8-8s8,3.58,8,8S412.42,368,408,368z M427.76,346.43
	L464,296.6v104.87c-0.78,0.28-1.54,0.58-2.28,0.93l-32.12-32.12c1.5-3.13,2.4-6.58,2.4-10.28C432,354.96,430.42,350.3,427.76,346.43
	z M424.99,121.54l-57.06-18.29C367.53,90.38,356.98,80,344,80c-0.08,0-0.15,0.02-0.23,0.02l-10.83-35.21l92.54,75.19
	C425.3,120.51,425.14,121.02,424.99,121.54z M344,96c4.42,0,8,3.58,8,8s-3.58,8-8,8s-8-3.58-8-8S339.58,96,344,96z M363.01,118.48
	l63.74,20.42c3.38,6.54,9.59,11.34,17.07,12.67l15.08,90.46l-98.42-120.66C361.41,120.48,362.23,119.5,363.01,118.48z
	 M480.09,271.35c0,4.11-3.34,7.44-7.44,7.44c-4.11,0-7.44-3.34-7.44-7.44c0-4.11,3.34-7.44,7.44-7.44
	C476.75,263.91,480.09,267.25,480.09,271.35z M448,120c4.42,0,8,3.58,8,8s-3.58,8-8,8s-8-3.58-8-8S443.58,120,448,120z M320,16
	c4.42,0,8,3.58,8,8s-3.58,8-8,8s-8-3.58-8-8S315.58,16,320,16z M128,56c4.42,0,8,3.58,8,8s-3.58,8-8,8s-8-3.58-8-8S123.58,56,128,56
	z M40,248c-4.42,0-8-3.58-8-8s3.58-8,8-8s8,3.58,8,8S44.42,248,40,248z M44.08,213.94l-8.75-56.92c2.92-1.58,5.46-3.72,7.5-6.33
	l28.18,9.39L44.08,213.94z M47.95,135.55c-0.04-2.01-0.38-3.94-0.88-5.79l59.81-41.41l-28.65,57.3L47.95,135.55z M16,136
	c0-4.42,3.58-8,8-8s8,3.58,8,8s-3.58,8-8,8S16,140.42,16,136z M144.68,405.46c0.07,0.31,0.2,0.6,0.28,0.9L101.9,436.5
	c-3.93-2.81-8.7-4.5-13.9-4.5c-3.2,0-6.24,0.66-9.04,1.8l-34.03-38.29c0.19-0.35,0.4-0.7,0.58-1.06L144.68,405.46z M16,384
	c0-4.42,3.58-8,8-8s8,3.58,8,8s-3.58,8-8,8S16,388.42,16,384z M88,464c-4.42,0-8-3.58-8-8s3.58-8,8-8s8,3.58,8,8S92.42,464,88,464z
	 M160,400c0-4.42,3.58-8,8-8s8,3.58,8,8s-3.58,8-8,8S160,404.42,160,400z M216,480c-4.42,0-8-3.58-8-8s3.58-8,8-8s8,3.58,8,8
	S220.42,480,216,480z M345.47,464H238.53c-1.54-4.33-4.27-8.05-7.82-10.82l24.88-74.64l-15.17-5.06l-24.86,74.58
	c-1.87,0.03-3.66,0.32-5.41,0.76l-23-34.5c2.99-4.01,4.84-8.93,4.84-14.31c0-13.23-10.77-24-24-24c-9.47,0-17.61,5.57-21.51,13.56
	L50.57,378.9l97.2-51.84l-7.53-14.13l-100.13,53.4c-1.69-1.54-3.59-2.83-5.67-3.84l11.02-99.18c9.5-2.23,16.78-10.1,18.19-19.89
	l57.92-11.58l-3.14-15.69l-57.91,11.58c-0.94-1.57-2.01-3.04-3.26-4.35l29.09-58.18l55.13,18.38l5.06-15.17l-52.97-17.66
	l31.53-63.05c0.97,0.11,1.92,0.29,2.91,0.29c5.89,0,11.22-2.22,15.4-5.75l76.57,44.66l8.06-13.83l-76.48-44.62
	c0.08-0.4,0.07-0.83,0.13-1.24l147.9-30.81c0.92,1.5,1.96,2.92,3.18,4.19l-37.9,75.81l14.31,7.16l37.93-75.86l11.66,37.9
	C323.45,90.03,320,96.58,320,104c0,5.78,2.14,11.03,5.57,15.18l-12.42,20.7l13.72,8.23l12.36-20.6c1.54,0.32,3.14,0.49,4.78,0.49
	c0.39,0,0.76-0.1,1.15-0.12l106.73,130.85l-73.94-18.49l-3.87,15.51l74.17,18.54c0.4,4.14,1.76,8.02,4.01,11.27l-37.46,51.52
	c-2.17-0.64-4.41-1.09-6.78-1.09c-5.11,0-9.83,1.63-13.73,4.37l-37.62-26.87l-9.3,13.02l37.68,26.91c-0.61,2.1-1.03,4.28-1.03,6.58
	c0,7.49,3.52,14.1,8.9,18.5l-24.82,69.5c-0.03,0-0.06-0.01-0.08-0.01c-0.33,0-0.62,0.08-0.94,0.1l-39.62-99.06l-14.86,5.94
	l39.64,99.1C349.18,456.74,346.86,460.13,345.47,464z M368,480c-4.42,0-8-3.58-8-8s3.58-8,8-8s8,3.58,8,8S372.42,480,368,480z
	 M385.16,455.27c-0.63-0.65-1.35-1.2-2.06-1.78l24.82-69.5c0.02,0,0.05,0.01,0.07,0.01c3.7,0,7.15-0.9,10.28-2.41l32.12,32.12
	c-1.5,3.14-2.4,6.59-2.4,10.29c0,0.74,0.15,1.44,0.22,2.16L385.16,455.27z M472,432c-4.42,0-8-3.58-8-8s3.58-8,8-8s8,3.58,8,8
	S476.42,432,472,432z"/>
<g>
	<g>
		<g>
			<path class="st1" d="M369.75,249.05V195.5l-19.55-6.56c-1.4-3.98-3.04-8.02-5.03-12l9.25-18.5l-37.87-37.87l-18.55,9.19
				c-3.98-1.99-8.02-3.63-12-5.03l-6.5-19.55h-53.56l-6.56,19.55c-3.98,1.4-8.02,3.04-12,5.03l-18.5-9.25l-37.93,37.87l9.25,18.5
				c-1.99,3.98-3.63,8.02-5.03,12l-19.55,6.56V249l19.55,6.56c1.35,3.98,3.04,7.96,4.98,11.88l-8.55,15.69h2.75v9.37h51.51
				l4.62-4.62l-2.93-0.06c-20.78-14.34-34.42-38.34-34.42-65.56c0-43.96,35.65-79.6,79.6-79.6s79.6,35.65,79.6,79.6
				c0,28.5-14.98,53.5-37.46,67.55l-2.75-0.06c-1.7,1.7-4.04,2.75-6.61,2.75h18.73c5.15,0,9.37,4.21,9.37,9.37s-4.21,9.37-9.37,9.37
				c5.15,0,9.37,4.21,9.37,9.37c0,1.17-0.23,2.28-0.64,3.34l3.98-0.06l37.52-37.81l-9.31-18.5c1.99-3.98,3.63-8.02,5.03-12
				L369.75,249.05z"/>
		</g>
		<g>
			<path d="M379.11,367.4c-7.73,0-14.05,6.32-14.05,14.05s6.32,14.05,14.05,14.05s14.05-6.32,14.05-14.05S386.84,367.4,379.11,367.4
				z M379.11,386.13c-2.58,0-4.68-2.11-4.68-4.68c0-2.58,2.11-4.68,4.68-4.68c2.58,0,4.68,2.11,4.68,4.68
				C383.79,384.03,381.69,386.13,379.11,386.13z"/>
			<path d="M130.94,114.55c0-7.73-6.32-14.05-14.05-14.05s-14.05,6.32-14.05,14.05s6.32,14.05,14.05,14.05
				S130.94,122.27,130.94,114.55z M112.21,114.55c0-2.58,2.11-4.68,4.68-4.68c2.58,0,4.68,2.11,4.68,4.68
				c0,2.58-2.11,4.68-4.68,4.68C114.31,119.23,112.21,117.12,112.21,114.55z"/>
			<path class="st2" d="M336.97,222.25c0-46.47-37.81-84.29-84.29-84.29s-84.29,37.81-84.29,84.29c0,25.58,11.65,49.63,31.37,65.56
				h-40.74v-9.37h-32.78v93.65h32.78v-14.05h35.53l14.05,14.05h25.34v4.68c0,10.3,8.43,18.73,18.73,18.73s18.73-8.43,18.73-18.73
				v-4.68h32.78c7.73,0,14.05-6.32,14.05-14.05c0-3.63-1.4-6.85-3.63-9.37c2.22-2.52,3.63-5.74,3.63-9.37c0-3.63-1.4-6.85-3.63-9.37
				c2.22-2.52,3.63-5.74,3.63-9.37c0-3.63-1.4-6.85-3.63-9.37c2.22-2.52,3.63-5.74,3.63-9.37c0-7.32-5.62-13.23-12.76-13.93
				C325.38,272,336.97,248.12,336.97,222.25z M149.67,362.72h-14.05V287.8h14.05V362.72z M212.47,362.72l-14.05-14.05h-39.39v-51.51
				h48.76l18.73-18.73h58.94c2.58,0,4.68,2.11,4.68,4.68c0,2.58-2.11,4.68-4.68,4.68h-18.73H236.7l-20.08,20.08l6.61,6.61
				l10.71-10.71v58.94H212.47z M283.53,269.07h-12.12v-21.48l18.73-18.73v-25.34c0-10.3-8.43-18.73-18.73-18.73h-9.37v26.16
				l-1.93,1.93h-14.87l-1.93-1.93v-26.16h-9.37c-10.3,0-18.73,8.43-18.73,18.73v25.34l18.73,18.73v21.48h-11.3l-0.29,0.29
				c-15.98-10.3-25.87-27.98-25.87-47.12c0-30.96,25.23-56.19,56.19-56.19s56.19,25.23,56.19,56.19
				C308.87,241.21,299.39,258.59,283.53,269.07z M241.39,222.25h22.59l7.43-7.43v-20.66c5.15,0,9.37,4.21,9.37,9.37V225
				l-15.98,15.98h-24.23L224.59,225v-21.48c0-5.15,4.21-9.37,9.37-9.37v20.66L241.39,222.25z M243.32,250.34h18.73v18.73h-18.73
				V250.34z M308.87,320.58c0,2.58-2.11,4.68-4.68,4.68h-37.46c-2.58,0-4.68-2.11-4.68-4.68c0-2.58,2.11-4.68,4.68-4.68h37.46
				C306.77,315.9,308.87,318,308.87,320.58z M308.87,339.31c0,2.58-2.11,4.68-4.68,4.68h-37.46c-2.58,0-4.68-2.11-4.68-4.68
				c0-2.58,2.11-4.68,4.68-4.68h37.46C306.77,334.63,308.87,336.73,308.87,339.31z M252.68,386.13c-5.15,0-9.37-4.21-9.37-9.37
				v-79.6h10.24c-0.53,1.46-0.88,3.04-0.88,4.68c0,3.63,1.4,6.85,3.63,9.37c-2.22,2.52-3.63,5.74-3.63,9.37
				c0,3.63,1.4,6.85,3.63,9.37c-2.22,2.52-3.63,5.74-3.63,9.37c0,3.63,1.4,6.85,3.63,9.37c-2.22,2.52-3.63,5.74-3.63,9.37
				c0,6.09,3.92,11.24,9.37,13.17v5.56C262.05,381.92,257.83,386.13,252.68,386.13z M304.19,362.72h-37.46
				c-2.58,0-4.68-2.11-4.68-4.68c0-2.58,2.11-4.68,4.68-4.68h37.46c2.58,0,4.68,2.11,4.68,4.68
				C308.87,360.62,306.77,362.72,304.19,362.72z M308.87,301.85c0,2.58-2.11,4.68-4.68,4.68h-37.46c-2.58,0-4.68-2.11-4.68-4.68
				c0-2.58,2.11-4.68,4.68-4.68h18.73h18.73C306.77,297.17,308.87,299.27,308.87,301.85z M299.27,280.89
				c-0.53-3.34-2.22-6.2-4.68-8.31c14.93-12.41,23.65-30.61,23.65-50.34c0-36.17-29.38-65.56-65.56-65.56s-65.56,29.38-65.56,65.56
				c0,21.66,10.77,41.79,28.39,53.97l-6.73,6.73c-19.43-14.11-31.02-36.64-31.02-60.7c0-41.32,33.6-74.92,74.92-74.92
				s74.92,33.6,74.92,74.92C327.6,245.37,317.13,266.73,299.27,280.89z"/>
			<rect x="112.21" y="142.64" width="9.37" height="9.37"/>
			<rect x="112.21" y="166.06" width="9.37" height="9.37"/>
			<rect x="112.21" y="189.47" width="9.37" height="9.37"/>
			<rect x="374.43" y="297.17" width="9.37" height="9.37"/>
			<rect x="374.43" y="320.58" width="9.37" height="9.37"/>
			<rect x="374.43" y="343.99" width="9.37" height="9.37"/>
		</g>
	</g>
	<path class="st3" d="M205.21,291.49c-22.01-15.1-36.41-40.45-36.41-69.13c0-46.3,37.52-83.82,83.82-83.82s83.82,37.46,83.82,83.76
		c0,27.22-12.99,51.45-33.07,66.73"/>
</g>
</svg>
